<svg id="Layer_1" enable-background="new 0 0 128 128" height="512" viewBox="0 0 128 128" width="512" xmlns="http://www.w3.org/2000/svg"><path d="m121.192 88.985c2.956-7.082 4.596-14.845 4.596-22.985 0-33.009-26.855-59.864-59.864-59.864-33.01 0-59.865 26.855-59.865 59.864s26.855 59.864 59.864 59.864c9.693 0 18.846-2.33 26.954-6.437 3.418 2.41 7.574 3.839 12.064 3.839 11.579 0 21-9.42 21-21 0-5.035-1.784-9.659-4.749-13.281z" fill="#e6e7e8"/><path d="m80.941 98.266c0-11.046 8.954-20 20-20 6.035 0 11.433 2.685 15.101 6.912 3.051-7.114 4.746-14.947 4.746-23.178 0-32.51-26.354-58.864-58.864-58.864-32.51 0-58.865 26.354-58.865 58.864s26.354 58.864 58.864 58.864c9.76 0 18.957-2.39 27.061-6.594-4.874-3.647-8.043-9.448-8.043-16.004z" fill="#fff"/><path d="m80.941 98.266c0-11.046 8.954-20 20-20 6.026 0 11.416 2.677 15.083 6.893 2.86-6.676 4.533-13.982 4.726-21.659-.799-31.814-26.82-57.364-58.827-57.364s-58.028 25.55-58.826 57.364c.798 31.814 26.82 57.364 58.826 57.364 9.761 0 18.96-2.387 27.062-6.593-4.875-3.647-8.044-9.449-8.044-16.005z" fill="#ffd7e5"/><path d="m77.807 76.979c-.738-.94-1.616-1.765-2.559-2.048l-4.205-1.268s-1.381-.402-1.584-.469c-1.282-.431-2.119-.954-2.489-1.562-.298-.49-.313-1.328-.001-1.756s.748-.655 1.209-1.015c2.245-1.755 4.332-3.744 4.332-5.978 0-.195-.005-.475-.013-.817.171.035.345.06.525.06 1.622 0 2.938-1.483 2.938-3.313 0-1.792-1.265-3.243-2.841-3.302.313-1.792 2.245-7.085-.715-10.689-.948-1.155-2.091-1.842-3.354-1.938-.513-.039-.988-.233-1.393-.55-1.443-1.13-4.083-1.491-6.622-1.152-3.226.431-5.096.969-7.415 2.541-1.327.899-3.656 3.035-3.997 5.652-.281 2.158.183 4.578.615 6.26-1.238.389-2.152 1.657-2.152 3.177 0 1.829 1.315 3.313 2.938 3.313.175 0 .345-.025.512-.058 0 .069-.001.145-.001.211 0 2.648 1.632 4.36 4.051 6.205.27.206.564.413.871.617.821.546 1.296 1.475.999 2.415-.219.531-.756.897-1.512 1.246-.469.216-3.355 1.115-3.355 1.115l-3.614 1.069c-.942.279-1.821 1.095-2.562 2.028-1.194 1.504-.088 3.726 1.832 3.726l27.726-.002c1.914 0 3.019-2.212 1.836-3.718z" fill="#6dc9f7"/><path d="m107.435 64.532c-.738-.94-1.616-1.765-2.559-2.048l-4.205-1.268s-1.381-.402-1.584-.469c-1.282-.431-2.119-.954-2.489-1.562-.298-.49-.313-1.328-.001-1.756s.748-.655 1.209-1.015c2.245-1.755 4.332-3.744 4.332-5.978 0-.195-.005-.475-.013-.817.171.035.345.06.525.06 1.622 0 2.938-1.483 2.938-3.313 0-1.792-1.265-3.243-2.841-3.302.313-1.792 2.245-7.085-.715-10.689-.948-1.155-2.091-1.842-3.354-1.938-.513-.039-.988-.233-1.393-.55-1.443-1.13-4.083-1.491-6.622-1.152-3.226.431-5.096.969-7.415 2.541-1.327.899-3.656 3.035-3.997 5.652-.281 2.158.183 4.578.615 6.26-1.238.389-2.152 1.657-2.152 3.177 0 1.829 1.315 3.313 2.938 3.313.175 0 .345-.025.512-.058 0 .069-.001.145-.001.211 0 2.648 1.632 4.36 4.051 6.205.27.206.564.413.871.617.821.546 1.296 1.475.999 2.415-.219.531-.756.897-1.512 1.246-.469.216-3.355 1.115-3.355 1.115l-3.614 1.069c-.942.279-1.821 1.095-2.562 2.028-1.194 1.504-.088 3.726 1.832 3.726l27.726-.002c1.914.001 3.019-2.211 1.836-3.718z" fill="#6dc9f7"/><path d="m47.814 64.532c-.738-.94-1.616-1.765-2.559-2.048l-4.205-1.268s-1.381-.402-1.584-.469c-1.282-.431-2.119-.954-2.489-1.562-.298-.49-.313-1.328-.001-1.756s.748-.655 1.209-1.015c2.245-1.755 4.332-3.744 4.332-5.978 0-.195-.005-.475-.013-.817.171.035.345.06.525.06 1.622 0 2.938-1.483 2.938-3.313 0-1.792-1.265-3.243-2.841-3.302.313-1.792 2.245-7.085-.715-10.689-.948-1.155-2.091-1.842-3.354-1.938-.513-.039-.988-.233-1.393-.55-1.443-1.13-4.083-1.491-6.622-1.152-3.226.431-5.096.969-7.415 2.541-1.327.899-3.656 3.035-3.997 5.652-.281 2.158.183 4.578.615 6.26-1.238.389-2.152 1.657-2.152 3.177 0 1.829 1.315 3.313 2.938 3.313.175 0 .345-.025.512-.058 0 .069-.001.145-.001.211 0 2.648 1.632 4.36 4.051 6.205.27.206.564.413.871.617.821.546 1.296 1.475.999 2.415-.219.531-.756.897-1.512 1.246-.469.216-3.355 1.115-3.355 1.115l-3.614 1.069c-.942.279-1.821 1.095-2.562 2.028-1.194 1.504-.088 3.726 1.832 3.726l27.726-.002c1.914.001 3.019-2.211 1.836-3.718z" fill="#6dc9f7"/><circle cx="100.941" cy="98.266" fill="#0089ef" r="20"/><g fill="#3a2c60"><path d="m13.595 93.834c-.303-.461-.924-.588-1.385-.284s-.588.924-.284 1.385c1.762 2.67 3.755 5.22 5.925 7.578.197.215.466.323.736.323.242 0 .484-.087.676-.264.407-.374.433-1.006.059-1.413-2.096-2.279-4.024-4.744-5.727-7.325z"/><path d="m47.084 58.813c0 2.215 1.532 4.045 3.496 4.286.34 2.852 2.429 4.679 4.398 6.182.287.218.597.437.922.653.401.267.769.744.628 1.202-.087.211-.416.446-1.007.718-.256.119-1.845.636-3.219 1.064l-3.613 1.069c-1.027.304-2.057 1.1-3.062 2.365-.787.991-.932 2.319-.378 3.465.561 1.162 1.708 1.883 2.994 1.883l27.726-.002c1.281 0 2.427-.718 2.989-1.875.555-1.142.415-2.469-.365-3.462-1.002-1.276-2.03-2.08-3.057-2.388l-4.215-1.271c-.001 0-1.349-.392-1.544-.457-1.434-.482-1.844-.954-1.953-1.133-.104-.173-.103-.546-.047-.648.126-.173.332-.319.592-.504.138-.097.279-.198.425-.312 2.271-1.776 4.592-3.938 4.711-6.555 1.944-.261 3.455-2.081 3.455-4.28 0-1.89-1.097-3.488-2.647-4.069.001-.004.002-.007.003-.011.593-2.478 1.696-7.091-1.14-10.544-1.141-1.391-2.542-2.187-4.051-2.301-.307-.023-.594-.138-.853-.341-1.575-1.233-4.399-1.751-7.371-1.355-3.184.425-5.271.96-7.844 2.704-.659.447-3.972 2.853-4.428 6.351-.213 1.633-.063 3.593.444 5.834-1.204.753-1.989 2.174-1.989 3.732zm3.453-2.224c.507-.16.8-.688.668-1.202-.598-2.332-.797-4.311-.592-5.883.268-2.054 2.088-3.952 3.566-4.954 2.033-1.378 3.666-1.933 6.987-2.377 2.418-.323 4.724.048 5.872.947.567.444 1.235.707 1.934.76.966.074 1.859.604 2.657 1.576 2.205 2.686 1.252 6.67.74 8.81-.102.427-.188.791-.237 1.072-.05.285.026.577.208.801s.451.359.74.37c1.036.038 1.879 1.071 1.879 2.302 0 1.275-.869 2.313-1.938 2.313-.112 0-.221-.018-.326-.04-.3-.061-.607.017-.841.213-.233.195-.365.486-.358.79.008.332.013.605.013.794 0 1.864-2.11 3.753-3.947 5.19-.119.093-.236.175-.35.256-.344.244-.733.52-1.052.958-.547.749-.567 2.007-.046 2.865.501.823 1.491 1.474 3.027 1.991.206.069 1.608.478 1.61.478l4.206 1.268c.616.186 1.329.776 2.062 1.708.308.392.359.897.139 1.352-.228.469-.673.749-1.19.749l-27.726.002c-.52 0-.965-.282-1.193-.753-.22-.456-.166-.961.144-1.351.733-.924 1.447-1.508 2.063-1.69l3.627-1.073c.691-.215 2.986-.936 3.476-1.162.787-.362 1.642-.856 2.048-1.852.416-1.314-.133-2.707-1.398-3.55-.289-.192-.565-.387-.818-.579-2.316-1.768-3.658-3.22-3.657-5.508v-.114c0-.299-.134-.583-.366-.773-.18-.148-.405-.227-.634-.227-.065 0-.13.006-.195.019-.104.021-.208.039-.317.039-1.068 0-1.938-1.038-1.938-2.313 0-1.039.598-1.953 1.453-2.222z"/><path d="m76.713 46.366c0 2.215 1.532 4.045 3.496 4.286.341 2.852 2.429 4.679 4.397 6.182.287.217.598.437.922.653.401.267.77.744.628 1.202-.087.212-.416.447-1.006.718-.256.119-1.845.636-3.219 1.064l-3.615 1.069c-1.025.304-2.055 1.099-3.061 2.365-.787.991-.932 2.319-.379 3.465.562 1.162 1.709 1.883 2.994 1.883l27.726-.002c1.281 0 2.427-.718 2.989-1.875.556-1.142.416-2.468-.363-3.461-.001 0-.001 0-.001 0-1.002-1.276-2.03-2.08-3.057-2.388l-4.215-1.271s-1.35-.393-1.544-.457c-1.435-.482-1.844-.953-1.954-1.135-.104-.172-.102-.545-.048-.646.127-.174.333-.32.594-.505.138-.097.279-.198.424-.311 2.271-1.776 4.593-3.938 4.712-6.555 1.944-.262 3.454-2.082 3.454-4.28 0-1.889-1.097-3.488-2.646-4.069 0-.003.001-.006.002-.009.593-2.479 1.698-7.092-1.14-10.547-1.142-1.39-2.542-2.186-4.05-2.301-.308-.023-.595-.138-.854-.341-1.576-1.233-4.401-1.753-7.37-1.355-3.183.425-5.271.96-7.845 2.704-.659.447-3.973 2.854-4.426 6.351-.214 1.636-.064 3.595.442 5.834-1.202.754-1.987 2.175-1.987 3.732zm3.452-2.223c.507-.16.801-.688.669-1.203-.598-2.329-.797-4.308-.592-5.882.267-2.053 2.088-3.952 3.565-4.954 2.035-1.378 3.667-1.934 6.988-2.377 2.419-.324 4.723.048 5.872.948.567.444 1.236.707 1.934.76.965.074 1.858.604 2.657 1.576 2.206 2.687 1.252 6.671.739 8.812-.102.426-.188.789-.237 1.07-.05.285.026.577.208.801s.451.36.74.371c1.036.038 1.879 1.071 1.879 2.302 0 1.275-.869 2.313-1.938 2.313-.111 0-.22-.018-.325-.04-.299-.063-.607.018-.841.213s-.365.486-.358.79c.008.332.013.605.013.794 0 1.864-2.11 3.753-3.948 5.19-.119.093-.236.175-.35.255-.343.244-.732.52-1.053.959-.546.75-.565 2.009-.044 2.863.499.823 1.488 1.474 3.028 1.992.206.068 1.608.477 1.609.478l4.206 1.268c.616.186 1.329.776 2.062 1.708.308.392.359.897.138 1.352-.228.469-.673.749-1.19.749l-27.726.002c-.52 0-.965-.282-1.192-.753-.221-.456-.167-.961.144-1.352.734-.924 1.447-1.508 2.062-1.69l3.629-1.073c.691-.215 2.985-.936 3.475-1.162.786-.362 1.641-.856 2.047-1.852.416-1.314-.132-2.707-1.397-3.55-.288-.192-.565-.387-.818-.579-2.316-1.768-3.657-3.22-3.657-5.508l.001-.114c0-.299-.134-.583-.365-.773-.181-.148-.405-.227-.635-.227-.064 0-.13.006-.195.019-.104.021-.207.039-.316.039-1.068 0-1.938-1.038-1.938-2.313-.002-1.039.596-1.953 1.45-2.222z"/><path d="m25.53 59.407c-.257.118-1.846.636-3.22 1.064l-3.613 1.069c-1.026.304-2.056 1.099-3.061 2.365-.787.991-.932 2.319-.378 3.465.561 1.162 1.708 1.883 2.994 1.883l27.726-.002c1.282 0 2.427-.718 2.989-1.875.555-1.142.416-2.469-.365-3.462-1.001-1.276-2.03-2.08-3.057-2.388l-4.214-1.271c-.001 0-1.349-.393-1.544-.457-1.434-.482-1.844-.954-1.953-1.134-.105-.172-.103-.545-.048-.647.127-.174.333-.32.593-.504.137-.097.279-.198.423-.312 2.272-1.776 4.593-3.938 4.712-6.555 1.944-.262 3.454-2.082 3.454-4.28 0-1.889-1.096-3.488-2.646-4.069 0-.003.001-.007.002-.01.593-2.478 1.697-7.091-1.14-10.545-1.141-1.391-2.542-2.187-4.051-2.301-.307-.023-.593-.138-.853-.341-1.576-1.233-4.401-1.754-7.371-1.355-3.184.425-5.271.96-7.844 2.704-.659.447-3.972 2.853-4.427 6.351-.213 1.634-.063 3.593.443 5.834-1.205.754-1.99 2.175-1.99 3.732 0 2.215 1.532 4.045 3.497 4.286.34 2.851 2.428 4.679 4.397 6.182.287.218.597.437.922.653.401.267.769.744.628 1.202-.086.211-.415.446-1.005.718zm1.486-3.586c-.289-.192-.565-.387-.818-.579-2.316-1.768-3.657-3.22-3.657-5.411v-.211c0-.299-.134-.583-.366-.773-.181-.148-.405-.227-.634-.227-.065 0-.131.006-.196.02-.103.021-.208.039-.316.039-1.068 0-1.938-1.038-1.938-2.313 0-1.04.597-1.955 1.453-2.224.507-.16.8-.688.668-1.202-.597-2.331-.796-4.31-.591-5.883.267-2.054 2.088-3.952 3.566-4.954 2.034-1.378 3.666-1.933 6.987-2.377 2.419-.325 4.724.048 5.873.948.567.444 1.235.707 1.933.76.965.074 1.859.604 2.657 1.576 2.206 2.686 1.252 6.67.74 8.811-.102.427-.188.79-.237 1.071-.05.284.026.576.208.801s.452.36.74.371c1.036.038 1.878 1.071 1.878 2.302 0 1.275-.869 2.313-1.938 2.313-.112 0-.219-.018-.326-.04-.297-.063-.607.018-.84.213s-.365.486-.358.79c.007.332.012.605.012.794 0 1.864-2.11 3.753-3.948 5.19-.119.093-.236.175-.35.256-.343.244-.733.52-1.052.958-.546.75-.566 2.008-.045 2.864.5.823 1.49 1.474 3.028 1.991.207.069 1.609.478 1.61.478l4.206 1.268c.616.186 1.329.776 2.061 1.708.308.392.36.897.139 1.352-.228.469-.673.749-1.19.749l-27.725.003c-.519 0-.965-.281-1.193-.753-.22-.456-.166-.961.144-1.352.733-.924 1.447-1.508 2.062-1.69l3.627-1.073c.691-.215 2.986-.936 3.476-1.162.786-.362 1.641-.856 2.047-1.852.417-1.314-.132-2.707-1.397-3.55z"/><path d="m117.174 84.961c2.954-7.078 4.613-14.825 4.613-22.961 0-33.009-26.854-59.864-59.864-59.864s-59.864 26.855-59.864 59.864c0 9.546 2.181 18.67 6.481 27.119.25.491.85.689 1.345.438.492-.25.688-.853.438-1.345-4.156-8.165-6.264-16.984-6.264-26.212 0-31.906 25.958-57.864 57.864-57.864s57.864 25.958 57.864 57.864c0 7.535-1.465 14.73-4.098 21.338-3.795-3.75-9.004-6.072-14.748-6.072-11.579 0-21 9.42-21 21 0 6.288 2.792 11.923 7.184 15.775-7.626 3.71-16.167 5.823-25.202 5.823-14.299 0-28.027-5.258-38.655-14.805-.411-.368-1.042-.335-1.413.076-.369.411-.335 1.043.076 1.413 10.996 9.877 25.198 15.317 39.992 15.317 9.693 0 18.846-2.33 26.953-6.438 3.418 2.41 7.574 3.84 12.065 3.84 11.579 0 21-9.42 21-21 0-5.047-1.79-9.681-4.767-13.306zm-16.233 32.305c-10.477 0-19-8.523-19-19s8.523-19 19-19 19 8.523 19 19-8.523 19-19 19z"/></g><path d="m107.86 84.322-3.598-.005c-4.042 0-6.655 2.68-6.655 6.828v3.149h-3.618c-.311 0-.565.252-.565.565v4.562c0 .311.254.565.565.565h3.618v11.511c0 .311.254.565.566.565h4.719c.313 0 .566-.254.566-.565v-11.511h4.23c.313 0 .565-.254.565-.565l.003-4.562c0-.149-.061-.293-.166-.4-.106-.106-.249-.165-.4-.165h-4.231v-2.669c0-1.283.306-1.934 1.976-1.934l2.424-.001c.313 0 .565-.254.565-.565v-4.235c-.001-.314-.253-.566-.564-.568zm0 0" fill="#fff"/></svg>